<mxfile host="app.diagrams.net" modified="2022-03-07T09:13:12.706Z" agent="5.0 (Windows NT 10.0; Win64; x64) AppleWebKit/537.36 (KHTML, like Gecko) Chrome/98.0.4758.102 Safari/537.36" etag="utsdUTb6RkZXdcj_PSgF" version="16.6.6" type="github">
  <diagram id="tkrg2H3kOuFAfJRmincd" name="Page-1">
    <mxGraphModel dx="1865" dy="631" grid="1" gridSize="10" guides="1" tooltips="1" connect="1" arrows="1" fold="1" page="1" pageScale="1" pageWidth="827" pageHeight="1169" math="0" shadow="0">
      <root>
        <mxCell id="0" />
        <mxCell id="1" parent="0" />
        <mxCell id="2DwnSNzTs9KcCiTN-Hxo-27" value="" style="shape=ext;double=1;rounded=1;whiteSpace=wrap;html=1;" parent="1" vertex="1">
          <mxGeometry x="-30" width="690" height="520" as="geometry" />
        </mxCell>
        <mxCell id="V5GVVPGncusoq1H2g-mF-56" value="Menu" style="swimlane;fontStyle=1;childLayout=stackLayout;horizontal=1;startSize=30;horizontalStack=0;resizeParent=1;resizeParentMax=0;resizeLast=0;collapsible=1;marginBottom=0;labelBorderColor=none;" parent="1" vertex="1">
          <mxGeometry y="210" width="190" height="150" as="geometry">
            <mxRectangle x="40" y="100" width="50" height="30" as="alternateBounds" />
          </mxGeometry>
        </mxCell>
        <mxCell id="V5GVVPGncusoq1H2g-mF-57" value="Shartnomalar" style="text;strokeColor=none;fillColor=none;align=left;verticalAlign=middle;spacingLeft=4;spacingRight=4;overflow=hidden;points=[[0,0.5],[1,0.5]];portConstraint=eastwest;rotatable=0;fontStyle=1" parent="V5GVVPGncusoq1H2g-mF-56" vertex="1">
          <mxGeometry y="30" width="190" height="30" as="geometry" />
        </mxCell>
        <mxCell id="2DwnSNzTs9KcCiTN-Hxo-5" value="Shartnoma namunalari" style="text;strokeColor=none;fillColor=none;align=left;verticalAlign=middle;spacingLeft=4;spacingRight=4;overflow=hidden;points=[[0,0.5],[1,0.5]];portConstraint=eastwest;rotatable=0;fontStyle=1" parent="V5GVVPGncusoq1H2g-mF-56" vertex="1">
          <mxGeometry y="60" width="190" height="30" as="geometry" />
        </mxCell>
        <mxCell id="2DwnSNzTs9KcCiTN-Hxo-62" value="Mijoz haqida ma&#39;lumot" style="text;strokeColor=none;fillColor=none;align=left;verticalAlign=middle;spacingLeft=4;spacingRight=4;overflow=hidden;points=[[0,0.5],[1,0.5]];portConstraint=eastwest;rotatable=0;fontStyle=1" parent="V5GVVPGncusoq1H2g-mF-56" vertex="1">
          <mxGeometry y="90" width="190" height="30" as="geometry" />
        </mxCell>
        <mxCell id="2DwnSNzTs9KcCiTN-Hxo-6" value="Sozlamalar" style="text;strokeColor=none;fillColor=none;align=left;verticalAlign=middle;spacingLeft=4;spacingRight=4;overflow=hidden;points=[[0,0.5],[1,0.5]];portConstraint=eastwest;rotatable=0;fontStyle=1" parent="V5GVVPGncusoq1H2g-mF-56" vertex="1">
          <mxGeometry y="120" width="190" height="30" as="geometry" />
        </mxCell>
        <mxCell id="V5GVVPGncusoq1H2g-mF-62" value="Shartnomalar" style="swimlane;fontStyle=1;childLayout=stackLayout;horizontal=1;startSize=30;horizontalStack=0;resizeParent=1;resizeParentMax=0;resizeLast=0;collapsible=1;marginBottom=0;" parent="1" vertex="1">
          <mxGeometry x="210" y="70" width="360" height="150" as="geometry" />
        </mxCell>
        <mxCell id="V5GVVPGncusoq1H2g-mF-64" value="(Shartnoma) №" style="text;strokeColor=none;fillColor=none;align=left;verticalAlign=middle;spacingLeft=4;spacingRight=4;overflow=hidden;points=[[0,0.5],[1,0.5]];portConstraint=eastwest;rotatable=0;" parent="V5GVVPGncusoq1H2g-mF-62" vertex="1">
          <mxGeometry y="30" width="360" height="30" as="geometry" />
        </mxCell>
        <mxCell id="V5GVVPGncusoq1H2g-mF-65" value="Shartnoma turi" style="text;strokeColor=none;fillColor=none;align=left;verticalAlign=middle;spacingLeft=4;spacingRight=4;overflow=hidden;points=[[0,0.5],[1,0.5]];portConstraint=eastwest;rotatable=0;" parent="V5GVVPGncusoq1H2g-mF-62" vertex="1">
          <mxGeometry y="60" width="360" height="30" as="geometry" />
        </mxCell>
        <mxCell id="2DwnSNzTs9KcCiTN-Hxo-1" value="Shartnoma tuzilgan, tasdiqlangan, bekor qilingan sanasi" style="text;strokeColor=none;fillColor=none;align=left;verticalAlign=middle;spacingLeft=4;spacingRight=4;overflow=hidden;points=[[0,0.5],[1,0.5]];portConstraint=eastwest;rotatable=0;" parent="V5GVVPGncusoq1H2g-mF-62" vertex="1">
          <mxGeometry y="90" width="360" height="30" as="geometry" />
        </mxCell>
        <mxCell id="2DwnSNzTs9KcCiTN-Hxo-2" value="Shartnoma  holati" style="text;strokeColor=none;fillColor=none;align=left;verticalAlign=middle;spacingLeft=4;spacingRight=4;overflow=hidden;points=[[0,0.5],[1,0.5]];portConstraint=eastwest;rotatable=0;" parent="V5GVVPGncusoq1H2g-mF-62" vertex="1">
          <mxGeometry y="120" width="360" height="30" as="geometry" />
        </mxCell>
        <mxCell id="2DwnSNzTs9KcCiTN-Hxo-7" value="" style="curved=1;endArrow=classic;html=1;rounded=0;entryX=0.002;entryY=0.111;entryDx=0;entryDy=0;entryPerimeter=0;" parent="1" source="V5GVVPGncusoq1H2g-mF-57" target="V5GVVPGncusoq1H2g-mF-62" edge="1">
          <mxGeometry width="50" height="50" relative="1" as="geometry">
            <mxPoint x="320" y="360" as="sourcePoint" />
            <mxPoint x="370" y="310" as="targetPoint" />
            <Array as="points">
              <mxPoint x="220" y="250" />
              <mxPoint x="190" y="190" />
            </Array>
          </mxGeometry>
        </mxCell>
        <mxCell id="2DwnSNzTs9KcCiTN-Hxo-8" value="Shartnomalar" style="swimlane;fontStyle=1;childLayout=stackLayout;horizontal=1;startSize=30;horizontalStack=0;resizeParent=1;resizeParentMax=0;resizeLast=0;collapsible=1;marginBottom=0;" parent="1" vertex="1">
          <mxGeometry x="270" y="230" width="360" height="210" as="geometry" />
        </mxCell>
        <mxCell id="2DwnSNzTs9KcCiTN-Hxo-9" value="Shartnoma turlari (ComboBox)" style="text;strokeColor=none;fillColor=none;align=left;verticalAlign=middle;spacingLeft=4;spacingRight=4;overflow=hidden;points=[[0,0.5],[1,0.5]];portConstraint=eastwest;rotatable=0;" parent="2DwnSNzTs9KcCiTN-Hxo-8" vertex="1">
          <mxGeometry y="30" width="360" height="30" as="geometry" />
        </mxCell>
        <mxCell id="2DwnSNzTs9KcCiTN-Hxo-10" value="Holati" style="text;strokeColor=none;fillColor=none;align=left;verticalAlign=middle;spacingLeft=4;spacingRight=4;overflow=hidden;points=[[0,0.5],[1,0.5]];portConstraint=eastwest;rotatable=0;" parent="2DwnSNzTs9KcCiTN-Hxo-8" vertex="1">
          <mxGeometry y="60" width="360" height="30" as="geometry" />
        </mxCell>
        <mxCell id="2DwnSNzTs9KcCiTN-Hxo-11" value="Shartnoma bandlari" style="text;strokeColor=none;fillColor=none;align=left;verticalAlign=middle;spacingLeft=4;spacingRight=4;overflow=hidden;points=[[0,0.5],[1,0.5]];portConstraint=eastwest;rotatable=0;" parent="2DwnSNzTs9KcCiTN-Hxo-8" vertex="1">
          <mxGeometry y="90" width="360" height="30" as="geometry" />
        </mxCell>
        <mxCell id="2DwnSNzTs9KcCiTN-Hxo-12" value="Mahsulot yoki hizmat nomi " style="text;strokeColor=none;fillColor=none;align=left;verticalAlign=middle;spacingLeft=4;spacingRight=4;overflow=hidden;points=[[0,0.5],[1,0.5]];portConstraint=eastwest;rotatable=0;" parent="2DwnSNzTs9KcCiTN-Hxo-8" vertex="1">
          <mxGeometry y="120" width="360" height="30" as="geometry" />
        </mxCell>
        <mxCell id="2DwnSNzTs9KcCiTN-Hxo-13" value="Mahsulot yoki hizmat birligi" style="text;strokeColor=none;fillColor=none;align=left;verticalAlign=middle;spacingLeft=4;spacingRight=4;overflow=hidden;points=[[0,0.5],[1,0.5]];portConstraint=eastwest;rotatable=0;" parent="2DwnSNzTs9KcCiTN-Hxo-8" vertex="1">
          <mxGeometry y="150" width="360" height="30" as="geometry" />
        </mxCell>
        <mxCell id="2DwnSNzTs9KcCiTN-Hxo-15" value="Mahsulot yoki hizmat Narxi" style="text;strokeColor=none;fillColor=none;align=left;verticalAlign=middle;spacingLeft=4;spacingRight=4;overflow=hidden;points=[[0,0.5],[1,0.5]];portConstraint=eastwest;rotatable=0;" parent="2DwnSNzTs9KcCiTN-Hxo-8" vertex="1">
          <mxGeometry y="180" width="360" height="30" as="geometry" />
        </mxCell>
        <mxCell id="2DwnSNzTs9KcCiTN-Hxo-16" value="" style="endArrow=classic;html=1;rounded=0;entryX=0;entryY=0.095;entryDx=0;entryDy=0;entryPerimeter=0;exitX=1;exitY=0.5;exitDx=0;exitDy=0;" parent="1" source="2DwnSNzTs9KcCiTN-Hxo-5" target="2DwnSNzTs9KcCiTN-Hxo-8" edge="1">
          <mxGeometry width="50" height="50" relative="1" as="geometry">
            <mxPoint x="320" y="360" as="sourcePoint" />
            <mxPoint x="370" y="310" as="targetPoint" />
          </mxGeometry>
        </mxCell>
        <mxCell id="2DwnSNzTs9KcCiTN-Hxo-25" value="&lt;h1&gt;Rejalash bo&#39;limi&lt;/h1&gt;&lt;p style=&quot;text-align: justify&quot;&gt;Bu bo&#39;lim yagona hodimga biriktiriladi va uning asosiy maqsadi- shartnomalar bilan ishlash va imzo uchun tasdiqlash hamda narxlarni belgilashdan iborat!&lt;/p&gt;" style="text;html=1;strokeColor=none;fillColor=none;spacing=5;spacingTop=-20;whiteSpace=wrap;overflow=hidden;rounded=0;" parent="1" vertex="1">
          <mxGeometry y="10" width="200" height="120" as="geometry" />
        </mxCell>
        <mxCell id="2DwnSNzTs9KcCiTN-Hxo-28" value="" style="rounded=1;whiteSpace=wrap;html=1;" parent="1" vertex="1">
          <mxGeometry x="-40" y="530" width="690" height="400" as="geometry" />
        </mxCell>
        <mxCell id="2DwnSNzTs9KcCiTN-Hxo-29" value="Direktor" style="swimlane;fontStyle=0;childLayout=stackLayout;horizontal=1;startSize=30;horizontalStack=0;resizeParent=1;resizeParentMax=0;resizeLast=0;collapsible=1;marginBottom=0;" parent="1" vertex="1">
          <mxGeometry x="-10" y="700" width="180" height="120" as="geometry" />
        </mxCell>
        <mxCell id="2DwnSNzTs9KcCiTN-Hxo-30" value="Shartnomalar" style="text;strokeColor=none;fillColor=none;align=left;verticalAlign=middle;spacingLeft=4;spacingRight=4;overflow=hidden;points=[[0,0.5],[1,0.5]];portConstraint=eastwest;rotatable=0;" parent="2DwnSNzTs9KcCiTN-Hxo-29" vertex="1">
          <mxGeometry y="30" width="180" height="30" as="geometry" />
        </mxCell>
        <mxCell id="2DwnSNzTs9KcCiTN-Hxo-34" value="Mijoz haqida ma&#39;lumot" style="text;strokeColor=none;fillColor=none;align=left;verticalAlign=middle;spacingLeft=4;spacingRight=4;overflow=hidden;points=[[0,0.5],[1,0.5]];portConstraint=eastwest;rotatable=0;" parent="2DwnSNzTs9KcCiTN-Hxo-29" vertex="1">
          <mxGeometry y="60" width="180" height="30" as="geometry" />
        </mxCell>
        <mxCell id="2DwnSNzTs9KcCiTN-Hxo-42" value="Sozlamalar" style="text;strokeColor=none;fillColor=none;align=left;verticalAlign=middle;spacingLeft=4;spacingRight=4;overflow=hidden;points=[[0,0.5],[1,0.5]];portConstraint=eastwest;rotatable=0;" parent="2DwnSNzTs9KcCiTN-Hxo-29" vertex="1">
          <mxGeometry y="90" width="180" height="30" as="geometry" />
        </mxCell>
        <mxCell id="2DwnSNzTs9KcCiTN-Hxo-33" value="&lt;h1&gt;Direktor&lt;/h1&gt;&lt;p&gt;Bu ro&#39;lning adosiy maqsadi - tasdiqlangan shartnomalarni imzolash.&lt;/p&gt;" style="text;html=1;strokeColor=none;fillColor=none;spacing=5;spacingTop=-20;whiteSpace=wrap;overflow=hidden;rounded=0;" parent="1" vertex="1">
          <mxGeometry x="10" y="540" width="190" height="100" as="geometry" />
        </mxCell>
        <mxCell id="2DwnSNzTs9KcCiTN-Hxo-48" value="Shartnomalar" style="swimlane;fontStyle=1;childLayout=stackLayout;horizontal=1;startSize=30;horizontalStack=0;resizeParent=1;resizeParentMax=0;resizeLast=0;collapsible=1;marginBottom=0;" parent="1" vertex="1">
          <mxGeometry x="210" y="600" width="360" height="150" as="geometry" />
        </mxCell>
        <mxCell id="2DwnSNzTs9KcCiTN-Hxo-49" value="(Shartnoma) №" style="text;strokeColor=none;fillColor=none;align=left;verticalAlign=middle;spacingLeft=4;spacingRight=4;overflow=hidden;points=[[0,0.5],[1,0.5]];portConstraint=eastwest;rotatable=0;" parent="2DwnSNzTs9KcCiTN-Hxo-48" vertex="1">
          <mxGeometry y="30" width="360" height="30" as="geometry" />
        </mxCell>
        <mxCell id="2DwnSNzTs9KcCiTN-Hxo-50" value="Shartnoma turi" style="text;strokeColor=none;fillColor=none;align=left;verticalAlign=middle;spacingLeft=4;spacingRight=4;overflow=hidden;points=[[0,0.5],[1,0.5]];portConstraint=eastwest;rotatable=0;" parent="2DwnSNzTs9KcCiTN-Hxo-48" vertex="1">
          <mxGeometry y="60" width="360" height="30" as="geometry" />
        </mxCell>
        <mxCell id="2DwnSNzTs9KcCiTN-Hxo-51" value="Shartnoma tuzilgan, tasdiqlangan, bekor qilingan sanasi" style="text;strokeColor=none;fillColor=none;align=left;verticalAlign=middle;spacingLeft=4;spacingRight=4;overflow=hidden;points=[[0,0.5],[1,0.5]];portConstraint=eastwest;rotatable=0;" parent="2DwnSNzTs9KcCiTN-Hxo-48" vertex="1">
          <mxGeometry y="90" width="360" height="30" as="geometry" />
        </mxCell>
        <mxCell id="2DwnSNzTs9KcCiTN-Hxo-52" value="Shartnoma  holati" style="text;strokeColor=none;fillColor=none;align=left;verticalAlign=middle;spacingLeft=4;spacingRight=4;overflow=hidden;points=[[0,0.5],[1,0.5]];portConstraint=eastwest;rotatable=0;" parent="2DwnSNzTs9KcCiTN-Hxo-48" vertex="1">
          <mxGeometry y="120" width="360" height="30" as="geometry" />
        </mxCell>
        <mxCell id="2DwnSNzTs9KcCiTN-Hxo-55" value="Mijoz haqida ma&#39;lumot" style="swimlane;fontStyle=0;childLayout=stackLayout;horizontal=1;startSize=30;horizontalStack=0;resizeParent=1;resizeParentMax=0;resizeLast=0;collapsible=1;marginBottom=0;" parent="1" vertex="1">
          <mxGeometry x="210" y="790" width="220" height="120" as="geometry" />
        </mxCell>
        <mxCell id="2DwnSNzTs9KcCiTN-Hxo-56" value="STIR" style="text;strokeColor=none;fillColor=none;align=left;verticalAlign=middle;spacingLeft=4;spacingRight=4;overflow=hidden;points=[[0,0.5],[1,0.5]];portConstraint=eastwest;rotatable=0;" parent="2DwnSNzTs9KcCiTN-Hxo-55" vertex="1">
          <mxGeometry y="30" width="220" height="30" as="geometry" />
        </mxCell>
        <mxCell id="2DwnSNzTs9KcCiTN-Hxo-57" value="Korxona nomi" style="text;strokeColor=none;fillColor=none;align=left;verticalAlign=middle;spacingLeft=4;spacingRight=4;overflow=hidden;points=[[0,0.5],[1,0.5]];portConstraint=eastwest;rotatable=0;" parent="2DwnSNzTs9KcCiTN-Hxo-55" vertex="1">
          <mxGeometry y="60" width="220" height="30" as="geometry" />
        </mxCell>
        <mxCell id="2DwnSNzTs9KcCiTN-Hxo-58" value="Litsenziya yo&#39;nalishi" style="text;strokeColor=none;fillColor=none;align=left;verticalAlign=middle;spacingLeft=4;spacingRight=4;overflow=hidden;points=[[0,0.5],[1,0.5]];portConstraint=eastwest;rotatable=0;" parent="2DwnSNzTs9KcCiTN-Hxo-55" vertex="1">
          <mxGeometry y="90" width="220" height="30" as="geometry" />
        </mxCell>
        <mxCell id="2DwnSNzTs9KcCiTN-Hxo-59" style="edgeStyle=orthogonalEdgeStyle;rounded=0;orthogonalLoop=1;jettySize=auto;html=1;entryX=-0.002;entryY=0.111;entryDx=0;entryDy=0;entryPerimeter=0;" parent="1" source="2DwnSNzTs9KcCiTN-Hxo-30" target="2DwnSNzTs9KcCiTN-Hxo-48" edge="1">
          <mxGeometry relative="1" as="geometry" />
        </mxCell>
        <mxCell id="2DwnSNzTs9KcCiTN-Hxo-60" style="edgeStyle=orthogonalEdgeStyle;rounded=0;orthogonalLoop=1;jettySize=auto;html=1;entryX=-0.01;entryY=0.122;entryDx=0;entryDy=0;entryPerimeter=0;" parent="1" source="2DwnSNzTs9KcCiTN-Hxo-34" target="2DwnSNzTs9KcCiTN-Hxo-55" edge="1">
          <mxGeometry relative="1" as="geometry" />
        </mxCell>
        <mxCell id="2DwnSNzTs9KcCiTN-Hxo-63" value="Mijoz haqida ma&#39;lumot" style="swimlane;fontStyle=1;childLayout=stackLayout;horizontal=1;startSize=30;horizontalStack=0;resizeParent=1;resizeParentMax=0;resizeLast=0;collapsible=1;marginBottom=0;" parent="1" vertex="1">
          <mxGeometry x="30" y="380" width="220" height="120" as="geometry" />
        </mxCell>
        <mxCell id="2DwnSNzTs9KcCiTN-Hxo-64" value="STIR" style="text;strokeColor=none;fillColor=none;align=left;verticalAlign=middle;spacingLeft=4;spacingRight=4;overflow=hidden;points=[[0,0.5],[1,0.5]];portConstraint=eastwest;rotatable=0;fontStyle=0" parent="2DwnSNzTs9KcCiTN-Hxo-63" vertex="1">
          <mxGeometry y="30" width="220" height="30" as="geometry" />
        </mxCell>
        <mxCell id="2DwnSNzTs9KcCiTN-Hxo-65" value="Korxona nomi" style="text;strokeColor=none;fillColor=none;align=left;verticalAlign=middle;spacingLeft=4;spacingRight=4;overflow=hidden;points=[[0,0.5],[1,0.5]];portConstraint=eastwest;rotatable=0;fontStyle=0" parent="2DwnSNzTs9KcCiTN-Hxo-63" vertex="1">
          <mxGeometry y="60" width="220" height="30" as="geometry" />
        </mxCell>
        <mxCell id="2DwnSNzTs9KcCiTN-Hxo-66" value="Litsenziya yo&#39;nalishi" style="text;strokeColor=none;fillColor=none;align=left;verticalAlign=middle;spacingLeft=4;spacingRight=4;overflow=hidden;points=[[0,0.5],[1,0.5]];portConstraint=eastwest;rotatable=0;" parent="2DwnSNzTs9KcCiTN-Hxo-63" vertex="1">
          <mxGeometry y="90" width="220" height="30" as="geometry" />
        </mxCell>
        <mxCell id="2DwnSNzTs9KcCiTN-Hxo-67" style="edgeStyle=orthogonalEdgeStyle;rounded=0;orthogonalLoop=1;jettySize=auto;html=1;entryX=0.824;entryY=-0.019;entryDx=0;entryDy=0;entryPerimeter=0;" parent="1" source="2DwnSNzTs9KcCiTN-Hxo-62" target="2DwnSNzTs9KcCiTN-Hxo-63" edge="1">
          <mxGeometry relative="1" as="geometry" />
        </mxCell>
        <mxCell id="2DwnSNzTs9KcCiTN-Hxo-68" value="" style="rounded=1;whiteSpace=wrap;html=1;" parent="1" vertex="1">
          <mxGeometry x="-50" y="940" width="690" height="630" as="geometry" />
        </mxCell>
        <mxCell id="2DwnSNzTs9KcCiTN-Hxo-69" value="&lt;h1&gt;Mijoz&lt;/h1&gt;&lt;p&gt;Ushbu bo&#39;limning asosiy maqsadi- sharnoma, hizmat turi va sonini tanlash va uni imzolash.&lt;/p&gt;" style="text;html=1;strokeColor=none;fillColor=none;spacing=5;spacingTop=-20;whiteSpace=wrap;overflow=hidden;rounded=0;" parent="1" vertex="1">
          <mxGeometry y="960" width="190" height="100" as="geometry" />
        </mxCell>
        <mxCell id="2DwnSNzTs9KcCiTN-Hxo-71" value="Mijoz" style="swimlane;fontStyle=0;childLayout=stackLayout;horizontal=1;startSize=30;horizontalStack=0;resizeParent=1;resizeParentMax=0;resizeLast=0;collapsible=1;marginBottom=0;" parent="1" vertex="1">
          <mxGeometry x="10" y="1110" width="140" height="120" as="geometry" />
        </mxCell>
        <mxCell id="2DwnSNzTs9KcCiTN-Hxo-72" value="Hizmat turlari" style="text;strokeColor=none;fillColor=none;align=left;verticalAlign=middle;spacingLeft=4;spacingRight=4;overflow=hidden;points=[[0,0.5],[1,0.5]];portConstraint=eastwest;rotatable=0;" parent="2DwnSNzTs9KcCiTN-Hxo-71" vertex="1">
          <mxGeometry y="30" width="140" height="30" as="geometry" />
        </mxCell>
        <mxCell id="2DwnSNzTs9KcCiTN-Hxo-73" value="Shartnomalar" style="text;strokeColor=none;fillColor=none;align=left;verticalAlign=middle;spacingLeft=4;spacingRight=4;overflow=hidden;points=[[0,0.5],[1,0.5]];portConstraint=eastwest;rotatable=0;" parent="2DwnSNzTs9KcCiTN-Hxo-71" vertex="1">
          <mxGeometry y="60" width="140" height="30" as="geometry" />
        </mxCell>
        <mxCell id="2DwnSNzTs9KcCiTN-Hxo-75" value="Sozlamalar" style="text;strokeColor=none;fillColor=none;align=left;verticalAlign=middle;spacingLeft=4;spacingRight=4;overflow=hidden;points=[[0,0.5],[1,0.5]];portConstraint=eastwest;rotatable=0;" parent="2DwnSNzTs9KcCiTN-Hxo-71" vertex="1">
          <mxGeometry y="90" width="140" height="30" as="geometry" />
        </mxCell>
        <mxCell id="2DwnSNzTs9KcCiTN-Hxo-76" value="List" style="swimlane;fontStyle=0;childLayout=stackLayout;horizontal=1;startSize=30;horizontalStack=0;resizeParent=1;resizeParentMax=0;resizeLast=0;collapsible=1;marginBottom=0;" parent="1" vertex="1">
          <mxGeometry x="280" y="1020" width="140" height="120" as="geometry" />
        </mxCell>
        <mxCell id="2DwnSNzTs9KcCiTN-Hxo-77" value="Hizmat turi" style="text;strokeColor=none;fillColor=none;align=left;verticalAlign=middle;spacingLeft=4;spacingRight=4;overflow=hidden;points=[[0,0.5],[1,0.5]];portConstraint=eastwest;rotatable=0;" parent="2DwnSNzTs9KcCiTN-Hxo-76" vertex="1">
          <mxGeometry y="30" width="140" height="30" as="geometry" />
        </mxCell>
        <mxCell id="2DwnSNzTs9KcCiTN-Hxo-78" value="Soni" style="text;strokeColor=none;fillColor=none;align=left;verticalAlign=middle;spacingLeft=4;spacingRight=4;overflow=hidden;points=[[0,0.5],[1,0.5]];portConstraint=eastwest;rotatable=0;" parent="2DwnSNzTs9KcCiTN-Hxo-76" vertex="1">
          <mxGeometry y="60" width="140" height="30" as="geometry" />
        </mxCell>
        <mxCell id="2DwnSNzTs9KcCiTN-Hxo-79" value="Muddati" style="text;strokeColor=none;fillColor=none;align=left;verticalAlign=middle;spacingLeft=4;spacingRight=4;overflow=hidden;points=[[0,0.5],[1,0.5]];portConstraint=eastwest;rotatable=0;" parent="2DwnSNzTs9KcCiTN-Hxo-76" vertex="1">
          <mxGeometry y="90" width="140" height="30" as="geometry" />
        </mxCell>
        <mxCell id="2DwnSNzTs9KcCiTN-Hxo-80" style="edgeStyle=orthogonalEdgeStyle;rounded=0;orthogonalLoop=1;jettySize=auto;html=1;entryX=0.003;entryY=0.166;entryDx=0;entryDy=0;entryPerimeter=0;" parent="1" source="2DwnSNzTs9KcCiTN-Hxo-72" target="2DwnSNzTs9KcCiTN-Hxo-76" edge="1">
          <mxGeometry relative="1" as="geometry" />
        </mxCell>
      </root>
    </mxGraphModel>
  </diagram>
</mxfile>
